# xmcd
#
# Track frame offsets:
#	150
#	17799
#	31029
#	45232
#	60269
#	76190
#	85492
#	99326
#	117064
#	139367
#	151807
#	165626
#	177464
#	195811
#	214759
#	229687
#	245796
#	257841
#	274995
#	284089
#	305695
#	324089
#
# Disc length: 4564 seconds
#
# Revision: 0
# Processed by: cddbd v1.4PL0 Copyright (c) Steve Scherf et al.
# Submitted via: MusicWizard 6.0.0
#
DISCID=2411d216
DTITLE=The Blues Band - 1. Official Blues Band Bootleg Album - 2. Ready
DYEAR=1900
DGENRE=Blues
TTITLE0=Talk to Me Baby
TTITLE1=Flatfoot Sam
TTITLE2=Two Bones and a Pick
TTITLE3=Someday Baby
TTITLE4=Boom Boom (out go the lights)
TTITLE5=Come on In
TTITLE6=Death Letter
TTITLE7=Going Home
TTITLE8=I Don't Know
TTITLE9=Diddy wah diddy
TTITLE10=Twentynine ways
TTITLE11=Find yourself another fool
TTITLE12=Noah Lewis Blues
TTITLE13=Hallelujah I love her so
TTITLE14=Maggies farm
TTITLE15=Lonely avenue
TTITLE16=Ready
TTITLE17=Green stuff
TTITLE18=Hey hey little girl
TTITLE19=Can't hold on
TTITLE20=Sus blues
TTITLE21=The cat
EXTD=1979 - 1980\ndigitalisiert von Vinyl
EXTT0=
EXTT1=
EXTT2=
EXTT3=
EXTT4=
EXTT5=
EXTT6=
EXTT7=
EXTT8=
EXTT9=
EXTT10=
EXTT11=
EXTT12=
EXTT13=
EXTT14=
EXTT15=
EXTT16=
EXTT17=
EXTT18=
EXTT19=
EXTT20=
EXTT21=
PLAYORDER=
